<mxfile host="app.diagrams.net" modified="2024-03-01T10:30:05.404Z" agent="Mozilla/5.0 (Windows NT 10.0; Win64; x64) AppleWebKit/537.36 (KHTML, like Gecko) Chrome/122.0.0.0 Safari/537.36" etag="fH9mNzdjfZ4aaJ5wkeeD" version="24.0.0" type="device">
  <diagram name="1 oldal" id="SmJxrce_6fRfbbXMs9d4">
    <mxGraphModel dx="1908" dy="1200" grid="1" gridSize="10" guides="1" tooltips="1" connect="1" arrows="1" fold="1" page="1" pageScale="1" pageWidth="827" pageHeight="1169" math="0" shadow="0">
      <root>
        <mxCell id="0" />
        <mxCell id="1" parent="0" />
        <mxCell id="JZlGZiO4kJjObdn242vA-1" value="Foglalás" style="shape=table;startSize=50;container=1;collapsible=0;childLayout=tableLayout;strokeColor=default;fontSize=16;" vertex="1" parent="1">
          <mxGeometry y="570" width="1570" height="350" as="geometry" />
        </mxCell>
        <mxCell id="JZlGZiO4kJjObdn242vA-2" value="" style="shape=tableRow;horizontal=0;startSize=0;swimlaneHead=0;swimlaneBody=0;strokeColor=inherit;top=0;left=0;bottom=0;right=0;collapsible=0;dropTarget=0;fillColor=none;points=[[0,0.5],[1,0.5]];portConstraint=eastwest;fontSize=16;" vertex="1" parent="JZlGZiO4kJjObdn242vA-1">
          <mxGeometry y="50" width="1570" height="60" as="geometry" />
        </mxCell>
        <mxCell id="JZlGZiO4kJjObdn242vA-3" value="Szolgáltatás" style="shape=partialRectangle;html=1;whiteSpace=wrap;connectable=0;strokeColor=inherit;overflow=hidden;fillColor=none;top=0;left=0;bottom=0;right=0;pointerEvents=1;fontSize=16;rowspan=1;colspan=3;" vertex="1" parent="JZlGZiO4kJjObdn242vA-2">
          <mxGeometry width="180" height="60" as="geometry">
            <mxRectangle width="70" height="60" as="alternateBounds" />
          </mxGeometry>
        </mxCell>
        <mxCell id="JZlGZiO4kJjObdn242vA-4" style="shape=partialRectangle;html=1;whiteSpace=wrap;connectable=0;strokeColor=inherit;overflow=hidden;fillColor=none;top=0;left=0;bottom=0;right=0;pointerEvents=1;fontSize=16;" vertex="1" visible="0" parent="JZlGZiO4kJjObdn242vA-2">
          <mxGeometry x="70" width="50" height="60" as="geometry">
            <mxRectangle width="50" height="60" as="alternateBounds" />
          </mxGeometry>
        </mxCell>
        <mxCell id="JZlGZiO4kJjObdn242vA-5" style="shape=partialRectangle;html=1;whiteSpace=wrap;connectable=0;strokeColor=inherit;overflow=hidden;fillColor=none;top=0;left=0;bottom=0;right=0;pointerEvents=1;fontSize=16;" vertex="1" visible="0" parent="JZlGZiO4kJjObdn242vA-2">
          <mxGeometry x="120" width="60" height="60" as="geometry">
            <mxRectangle width="60" height="60" as="alternateBounds" />
          </mxGeometry>
        </mxCell>
        <mxCell id="JZlGZiO4kJjObdn242vA-6" value="Vendég" style="shape=partialRectangle;html=1;whiteSpace=wrap;connectable=0;strokeColor=inherit;overflow=hidden;fillColor=none;top=0;left=0;bottom=0;right=0;pointerEvents=1;fontSize=16;rowspan=1;colspan=3;" vertex="1" parent="JZlGZiO4kJjObdn242vA-2">
          <mxGeometry x="180" width="411" height="60" as="geometry">
            <mxRectangle width="130" height="60" as="alternateBounds" />
          </mxGeometry>
        </mxCell>
        <mxCell id="JZlGZiO4kJjObdn242vA-7" style="shape=partialRectangle;html=1;whiteSpace=wrap;connectable=0;strokeColor=inherit;overflow=hidden;fillColor=none;top=0;left=0;bottom=0;right=0;pointerEvents=1;fontSize=16;" vertex="1" visible="0" parent="JZlGZiO4kJjObdn242vA-2">
          <mxGeometry x="310" width="99" height="60" as="geometry">
            <mxRectangle width="99" height="60" as="alternateBounds" />
          </mxGeometry>
        </mxCell>
        <mxCell id="JZlGZiO4kJjObdn242vA-8" style="shape=partialRectangle;html=1;whiteSpace=wrap;connectable=0;strokeColor=inherit;overflow=hidden;fillColor=none;top=0;left=0;bottom=0;right=0;pointerEvents=1;fontSize=16;" vertex="1" visible="0" parent="JZlGZiO4kJjObdn242vA-2">
          <mxGeometry x="409" width="182" height="60" as="geometry">
            <mxRectangle width="182" height="60" as="alternateBounds" />
          </mxGeometry>
        </mxCell>
        <mxCell id="JZlGZiO4kJjObdn242vA-9" value="Fodrász" style="shape=partialRectangle;html=1;whiteSpace=wrap;connectable=0;strokeColor=inherit;overflow=hidden;fillColor=none;top=0;left=0;bottom=0;right=0;pointerEvents=1;fontSize=16;rowspan=1;colspan=3;" vertex="1" parent="JZlGZiO4kJjObdn242vA-2">
          <mxGeometry x="591" width="419" height="60" as="geometry">
            <mxRectangle width="128" height="60" as="alternateBounds" />
          </mxGeometry>
        </mxCell>
        <mxCell id="JZlGZiO4kJjObdn242vA-10" style="shape=partialRectangle;html=1;whiteSpace=wrap;connectable=0;strokeColor=inherit;overflow=hidden;fillColor=none;top=0;left=0;bottom=0;right=0;pointerEvents=1;fontSize=16;" vertex="1" visible="0" parent="JZlGZiO4kJjObdn242vA-2">
          <mxGeometry x="719" width="91" height="60" as="geometry">
            <mxRectangle width="91" height="60" as="alternateBounds" />
          </mxGeometry>
        </mxCell>
        <mxCell id="JZlGZiO4kJjObdn242vA-11" style="shape=partialRectangle;html=1;whiteSpace=wrap;connectable=0;strokeColor=inherit;overflow=hidden;fillColor=none;top=0;left=0;bottom=0;right=0;pointerEvents=1;fontSize=16;" vertex="1" visible="0" parent="JZlGZiO4kJjObdn242vA-2">
          <mxGeometry x="810" width="200" height="60" as="geometry">
            <mxRectangle width="200" height="60" as="alternateBounds" />
          </mxGeometry>
        </mxCell>
        <mxCell id="JZlGZiO4kJjObdn242vA-12" value="Üzlet" style="shape=partialRectangle;html=1;whiteSpace=wrap;connectable=0;strokeColor=inherit;overflow=hidden;fillColor=none;top=0;left=0;bottom=0;right=0;pointerEvents=1;fontSize=16;rowspan=1;colspan=2;" vertex="1" parent="JZlGZiO4kJjObdn242vA-2">
          <mxGeometry x="1010" width="171" height="60" as="geometry">
            <mxRectangle width="49" height="60" as="alternateBounds" />
          </mxGeometry>
        </mxCell>
        <mxCell id="JZlGZiO4kJjObdn242vA-13" style="shape=partialRectangle;html=1;whiteSpace=wrap;connectable=0;strokeColor=inherit;overflow=hidden;fillColor=none;top=0;left=0;bottom=0;right=0;pointerEvents=1;fontSize=16;" vertex="1" visible="0" parent="JZlGZiO4kJjObdn242vA-2">
          <mxGeometry x="1059" width="122" height="60" as="geometry">
            <mxRectangle width="122" height="60" as="alternateBounds" />
          </mxGeometry>
        </mxCell>
        <mxCell id="JZlGZiO4kJjObdn242vA-14" value="Helyszín&#x9;" style="shape=partialRectangle;html=1;whiteSpace=wrap;connectable=0;strokeColor=inherit;overflow=hidden;fillColor=none;top=0;left=0;bottom=0;right=0;pointerEvents=1;fontSize=16;rowspan=1;colspan=3;" vertex="1" parent="JZlGZiO4kJjObdn242vA-2">
          <mxGeometry x="1181" width="389" height="60" as="geometry">
            <mxRectangle width="60" height="60" as="alternateBounds" />
          </mxGeometry>
        </mxCell>
        <mxCell id="JZlGZiO4kJjObdn242vA-15" value="" style="shape=partialRectangle;html=1;whiteSpace=wrap;connectable=0;strokeColor=inherit;overflow=hidden;fillColor=none;top=0;left=0;bottom=0;right=0;pointerEvents=1;fontSize=16;" vertex="1" visible="0" parent="JZlGZiO4kJjObdn242vA-2">
          <mxGeometry x="1241" width="129" height="60" as="geometry">
            <mxRectangle width="129" height="60" as="alternateBounds" />
          </mxGeometry>
        </mxCell>
        <mxCell id="JZlGZiO4kJjObdn242vA-16" style="shape=partialRectangle;html=1;whiteSpace=wrap;connectable=0;strokeColor=inherit;overflow=hidden;fillColor=none;top=0;left=0;bottom=0;right=0;pointerEvents=1;fontSize=16;" vertex="1" visible="0" parent="JZlGZiO4kJjObdn242vA-2">
          <mxGeometry x="1370" width="200" height="60" as="geometry">
            <mxRectangle width="200" height="60" as="alternateBounds" />
          </mxGeometry>
        </mxCell>
        <mxCell id="JZlGZiO4kJjObdn242vA-17" value="" style="shape=tableRow;horizontal=0;startSize=0;swimlaneHead=0;swimlaneBody=0;strokeColor=inherit;top=0;left=0;bottom=0;right=0;collapsible=0;dropTarget=0;fillColor=none;points=[[0,0.5],[1,0.5]];portConstraint=eastwest;fontSize=16;" vertex="1" parent="JZlGZiO4kJjObdn242vA-1">
          <mxGeometry y="110" width="1570" height="60" as="geometry" />
        </mxCell>
        <mxCell id="JZlGZiO4kJjObdn242vA-18" value="&lt;u style=&quot;border-color: var(--border-color);&quot;&gt;&lt;b style=&quot;border-color: var(--border-color);&quot;&gt;Név&lt;/b&gt;&lt;/u&gt;" style="shape=partialRectangle;html=1;whiteSpace=wrap;connectable=0;strokeColor=inherit;overflow=hidden;fillColor=none;top=0;left=0;bottom=0;right=0;pointerEvents=1;fontSize=16;" vertex="1" parent="JZlGZiO4kJjObdn242vA-17">
          <mxGeometry width="70" height="60" as="geometry">
            <mxRectangle width="70" height="60" as="alternateBounds" />
          </mxGeometry>
        </mxCell>
        <mxCell id="JZlGZiO4kJjObdn242vA-19" value="Ár" style="shape=partialRectangle;html=1;whiteSpace=wrap;connectable=0;strokeColor=inherit;overflow=hidden;fillColor=none;top=0;left=0;bottom=0;right=0;pointerEvents=1;fontSize=16;" vertex="1" parent="JZlGZiO4kJjObdn242vA-17">
          <mxGeometry x="70" width="50" height="60" as="geometry">
            <mxRectangle width="50" height="60" as="alternateBounds" />
          </mxGeometry>
        </mxCell>
        <mxCell id="JZlGZiO4kJjObdn242vA-20" value="Idő" style="shape=partialRectangle;html=1;whiteSpace=wrap;connectable=0;strokeColor=inherit;overflow=hidden;fillColor=none;top=0;left=0;bottom=0;right=0;pointerEvents=1;fontSize=16;" vertex="1" parent="JZlGZiO4kJjObdn242vA-17">
          <mxGeometry x="120" width="60" height="60" as="geometry">
            <mxRectangle width="60" height="60" as="alternateBounds" />
          </mxGeometry>
        </mxCell>
        <mxCell id="JZlGZiO4kJjObdn242vA-21" value="&lt;b&gt;&lt;u&gt;Telefonszám&lt;/u&gt;&lt;/b&gt;" style="shape=partialRectangle;html=1;whiteSpace=wrap;connectable=0;strokeColor=inherit;overflow=hidden;fillColor=none;top=0;left=0;bottom=0;right=0;pointerEvents=1;fontSize=16;" vertex="1" parent="JZlGZiO4kJjObdn242vA-17">
          <mxGeometry x="180" width="130" height="60" as="geometry">
            <mxRectangle width="130" height="60" as="alternateBounds" />
          </mxGeometry>
        </mxCell>
        <mxCell id="JZlGZiO4kJjObdn242vA-22" value="Név" style="shape=partialRectangle;html=1;whiteSpace=wrap;connectable=0;strokeColor=inherit;overflow=hidden;fillColor=none;top=0;left=0;bottom=0;right=0;pointerEvents=1;fontSize=16;" vertex="1" parent="JZlGZiO4kJjObdn242vA-17">
          <mxGeometry x="310" width="99" height="60" as="geometry">
            <mxRectangle width="99" height="60" as="alternateBounds" />
          </mxGeometry>
        </mxCell>
        <mxCell id="JZlGZiO4kJjObdn242vA-23" value="Email" style="shape=partialRectangle;html=1;whiteSpace=wrap;connectable=0;strokeColor=inherit;overflow=hidden;fillColor=none;top=0;left=0;bottom=0;right=0;pointerEvents=1;fontSize=16;" vertex="1" parent="JZlGZiO4kJjObdn242vA-17">
          <mxGeometry x="409" width="182" height="60" as="geometry">
            <mxRectangle width="182" height="60" as="alternateBounds" />
          </mxGeometry>
        </mxCell>
        <mxCell id="JZlGZiO4kJjObdn242vA-24" value="&lt;b&gt;&lt;u&gt;Telefonszám&lt;/u&gt;&lt;/b&gt;" style="shape=partialRectangle;html=1;whiteSpace=wrap;connectable=0;strokeColor=inherit;overflow=hidden;fillColor=none;top=0;left=0;bottom=0;right=0;pointerEvents=1;fontSize=16;" vertex="1" parent="JZlGZiO4kJjObdn242vA-17">
          <mxGeometry x="591" width="128" height="60" as="geometry">
            <mxRectangle width="128" height="60" as="alternateBounds" />
          </mxGeometry>
        </mxCell>
        <mxCell id="JZlGZiO4kJjObdn242vA-25" value="Név" style="shape=partialRectangle;html=1;whiteSpace=wrap;connectable=0;strokeColor=inherit;overflow=hidden;fillColor=none;top=0;left=0;bottom=0;right=0;pointerEvents=1;fontSize=16;" vertex="1" parent="JZlGZiO4kJjObdn242vA-17">
          <mxGeometry x="719" width="91" height="60" as="geometry">
            <mxRectangle width="91" height="60" as="alternateBounds" />
          </mxGeometry>
        </mxCell>
        <mxCell id="JZlGZiO4kJjObdn242vA-26" value="Email" style="shape=partialRectangle;html=1;whiteSpace=wrap;connectable=0;strokeColor=inherit;overflow=hidden;fillColor=none;top=0;left=0;bottom=0;right=0;pointerEvents=1;fontSize=16;" vertex="1" parent="JZlGZiO4kJjObdn242vA-17">
          <mxGeometry x="810" width="200" height="60" as="geometry">
            <mxRectangle width="200" height="60" as="alternateBounds" />
          </mxGeometry>
        </mxCell>
        <mxCell id="JZlGZiO4kJjObdn242vA-27" value="&lt;b&gt;&lt;u&gt;ID&lt;/u&gt;&lt;/b&gt;" style="shape=partialRectangle;html=1;whiteSpace=wrap;connectable=0;strokeColor=inherit;overflow=hidden;fillColor=none;top=0;left=0;bottom=0;right=0;pointerEvents=1;fontSize=16;" vertex="1" parent="JZlGZiO4kJjObdn242vA-17">
          <mxGeometry x="1010" width="49" height="60" as="geometry">
            <mxRectangle width="49" height="60" as="alternateBounds" />
          </mxGeometry>
        </mxCell>
        <mxCell id="JZlGZiO4kJjObdn242vA-28" value="Üzletvezető" style="shape=partialRectangle;html=1;whiteSpace=wrap;connectable=0;strokeColor=inherit;overflow=hidden;fillColor=none;top=0;left=0;bottom=0;right=0;pointerEvents=1;fontSize=16;" vertex="1" parent="JZlGZiO4kJjObdn242vA-17">
          <mxGeometry x="1059" width="122" height="60" as="geometry">
            <mxRectangle width="122" height="60" as="alternateBounds" />
          </mxGeometry>
        </mxCell>
        <mxCell id="JZlGZiO4kJjObdn242vA-29" value="&lt;b&gt;&lt;u&gt;ID&lt;/u&gt;&lt;/b&gt;" style="shape=partialRectangle;html=1;whiteSpace=wrap;connectable=0;strokeColor=inherit;overflow=hidden;fillColor=none;top=0;left=0;bottom=0;right=0;pointerEvents=1;fontSize=16;" vertex="1" parent="JZlGZiO4kJjObdn242vA-17">
          <mxGeometry x="1181" width="60" height="60" as="geometry">
            <mxRectangle width="60" height="60" as="alternateBounds" />
          </mxGeometry>
        </mxCell>
        <mxCell id="JZlGZiO4kJjObdn242vA-30" value="Irányítószám" style="shape=partialRectangle;html=1;whiteSpace=wrap;connectable=0;strokeColor=inherit;overflow=hidden;fillColor=none;top=0;left=0;bottom=0;right=0;pointerEvents=1;fontSize=16;" vertex="1" parent="JZlGZiO4kJjObdn242vA-17">
          <mxGeometry x="1241" width="129" height="60" as="geometry">
            <mxRectangle width="129" height="60" as="alternateBounds" />
          </mxGeometry>
        </mxCell>
        <mxCell id="JZlGZiO4kJjObdn242vA-31" value="Cím" style="shape=partialRectangle;html=1;whiteSpace=wrap;connectable=0;strokeColor=inherit;overflow=hidden;fillColor=none;top=0;left=0;bottom=0;right=0;pointerEvents=1;fontSize=16;" vertex="1" parent="JZlGZiO4kJjObdn242vA-17">
          <mxGeometry x="1370" width="200" height="60" as="geometry">
            <mxRectangle width="200" height="60" as="alternateBounds" />
          </mxGeometry>
        </mxCell>
        <mxCell id="JZlGZiO4kJjObdn242vA-32" value="" style="shape=tableRow;horizontal=0;startSize=0;swimlaneHead=0;swimlaneBody=0;strokeColor=inherit;top=0;left=0;bottom=0;right=0;collapsible=0;dropTarget=0;fillColor=none;points=[[0,0.5],[1,0.5]];portConstraint=eastwest;fontSize=16;" vertex="1" parent="JZlGZiO4kJjObdn242vA-1">
          <mxGeometry y="170" width="1570" height="60" as="geometry" />
        </mxCell>
        <mxCell id="JZlGZiO4kJjObdn242vA-33" value="Vágás" style="shape=partialRectangle;html=1;whiteSpace=wrap;connectable=1;strokeColor=inherit;overflow=hidden;fillColor=none;top=0;left=0;bottom=0;right=0;pointerEvents=1;fontSize=16;movable=1;resizable=1;rotatable=1;deletable=1;editable=1;locked=0;" vertex="1" parent="JZlGZiO4kJjObdn242vA-32">
          <mxGeometry width="70" height="60" as="geometry">
            <mxRectangle width="70" height="60" as="alternateBounds" />
          </mxGeometry>
        </mxCell>
        <mxCell id="JZlGZiO4kJjObdn242vA-34" value="4000" style="shape=partialRectangle;html=1;whiteSpace=wrap;connectable=1;strokeColor=inherit;overflow=hidden;fillColor=none;top=0;left=0;bottom=0;right=0;pointerEvents=1;fontSize=16;movable=1;resizable=1;rotatable=1;deletable=1;editable=1;locked=0;" vertex="1" parent="JZlGZiO4kJjObdn242vA-32">
          <mxGeometry x="70" width="50" height="60" as="geometry">
            <mxRectangle width="50" height="60" as="alternateBounds" />
          </mxGeometry>
        </mxCell>
        <mxCell id="JZlGZiO4kJjObdn242vA-35" value="15" style="shape=partialRectangle;html=1;whiteSpace=wrap;connectable=1;strokeColor=inherit;overflow=hidden;fillColor=none;top=0;left=0;bottom=0;right=0;pointerEvents=1;fontSize=16;movable=1;resizable=1;rotatable=1;deletable=1;editable=1;locked=0;" vertex="1" parent="JZlGZiO4kJjObdn242vA-32">
          <mxGeometry x="120" width="60" height="60" as="geometry">
            <mxRectangle width="60" height="60" as="alternateBounds" />
          </mxGeometry>
        </mxCell>
        <mxCell id="JZlGZiO4kJjObdn242vA-36" value="+36305687895" style="shape=partialRectangle;html=1;whiteSpace=wrap;connectable=1;strokeColor=inherit;overflow=hidden;fillColor=none;top=0;left=0;bottom=0;right=0;pointerEvents=1;fontSize=16;movable=1;resizable=1;rotatable=1;deletable=1;editable=1;locked=0;" vertex="1" parent="JZlGZiO4kJjObdn242vA-32">
          <mxGeometry x="180" width="130" height="60" as="geometry">
            <mxRectangle width="130" height="60" as="alternateBounds" />
          </mxGeometry>
        </mxCell>
        <mxCell id="JZlGZiO4kJjObdn242vA-37" value="Joe Fork" style="shape=partialRectangle;html=1;whiteSpace=wrap;connectable=1;strokeColor=inherit;overflow=hidden;fillColor=none;top=0;left=0;bottom=0;right=0;pointerEvents=1;fontSize=16;movable=1;resizable=1;rotatable=1;deletable=1;editable=1;locked=0;" vertex="1" parent="JZlGZiO4kJjObdn242vA-32">
          <mxGeometry x="310" width="99" height="60" as="geometry">
            <mxRectangle width="99" height="60" as="alternateBounds" />
          </mxGeometry>
        </mxCell>
        <mxCell id="JZlGZiO4kJjObdn242vA-38" value="joe.fork@example.com" style="shape=partialRectangle;html=1;whiteSpace=wrap;connectable=1;strokeColor=inherit;overflow=hidden;fillColor=none;top=0;left=0;bottom=0;right=0;pointerEvents=1;fontSize=16;movable=1;resizable=1;rotatable=1;deletable=1;editable=1;locked=0;" vertex="1" parent="JZlGZiO4kJjObdn242vA-32">
          <mxGeometry x="409" width="182" height="60" as="geometry">
            <mxRectangle width="182" height="60" as="alternateBounds" />
          </mxGeometry>
        </mxCell>
        <mxCell id="JZlGZiO4kJjObdn242vA-39" value="06202234599" style="shape=partialRectangle;html=1;whiteSpace=wrap;connectable=1;strokeColor=inherit;overflow=hidden;fillColor=none;top=0;left=0;bottom=0;right=0;pointerEvents=1;fontSize=16;movable=1;resizable=1;rotatable=1;deletable=1;editable=1;locked=0;rowspan=2;colspan=1;" vertex="1" parent="JZlGZiO4kJjObdn242vA-32">
          <mxGeometry x="591" width="128" height="120" as="geometry">
            <mxRectangle width="128" height="60" as="alternateBounds" />
          </mxGeometry>
        </mxCell>
        <mxCell id="JZlGZiO4kJjObdn242vA-40" value="Hair Good" style="shape=partialRectangle;html=1;whiteSpace=wrap;connectable=1;strokeColor=inherit;overflow=hidden;fillColor=none;top=0;left=0;bottom=0;right=0;pointerEvents=1;fontSize=16;movable=1;resizable=1;rotatable=1;deletable=1;editable=1;locked=0;rowspan=2;colspan=1;" vertex="1" parent="JZlGZiO4kJjObdn242vA-32">
          <mxGeometry x="719" width="91" height="120" as="geometry">
            <mxRectangle width="91" height="60" as="alternateBounds" />
          </mxGeometry>
        </mxCell>
        <mxCell id="JZlGZiO4kJjObdn242vA-41" value="good.hair123@gmail.com" style="shape=partialRectangle;html=1;whiteSpace=wrap;connectable=1;strokeColor=inherit;overflow=hidden;fillColor=none;top=0;left=0;bottom=0;right=0;pointerEvents=1;fontSize=16;movable=1;resizable=1;rotatable=1;deletable=1;editable=1;locked=0;rowspan=2;colspan=1;" vertex="1" parent="JZlGZiO4kJjObdn242vA-32">
          <mxGeometry x="810" width="200" height="120" as="geometry">
            <mxRectangle width="200" height="60" as="alternateBounds" />
          </mxGeometry>
        </mxCell>
        <mxCell id="JZlGZiO4kJjObdn242vA-42" value="1" style="shape=partialRectangle;html=1;whiteSpace=wrap;connectable=1;strokeColor=inherit;overflow=hidden;fillColor=none;top=0;left=0;bottom=0;right=0;pointerEvents=1;fontSize=16;movable=1;resizable=1;rotatable=1;deletable=1;editable=1;locked=0;rowspan=2;colspan=1;" vertex="1" parent="JZlGZiO4kJjObdn242vA-32">
          <mxGeometry x="1010" width="49" height="120" as="geometry">
            <mxRectangle width="49" height="60" as="alternateBounds" />
          </mxGeometry>
        </mxCell>
        <mxCell id="JZlGZiO4kJjObdn242vA-43" value="Lakatos Mihály" style="shape=partialRectangle;html=1;whiteSpace=wrap;connectable=1;strokeColor=inherit;overflow=hidden;fillColor=none;top=0;left=0;bottom=0;right=0;pointerEvents=1;fontSize=16;movable=1;resizable=1;rotatable=1;deletable=1;editable=1;locked=0;rowspan=2;colspan=1;" vertex="1" parent="JZlGZiO4kJjObdn242vA-32">
          <mxGeometry x="1059" width="122" height="120" as="geometry">
            <mxRectangle width="122" height="60" as="alternateBounds" />
          </mxGeometry>
        </mxCell>
        <mxCell id="JZlGZiO4kJjObdn242vA-44" value="1" style="shape=partialRectangle;html=1;whiteSpace=wrap;connectable=1;strokeColor=inherit;overflow=hidden;fillColor=none;top=0;left=0;bottom=0;right=0;pointerEvents=1;fontSize=16;movable=1;resizable=1;rotatable=1;deletable=1;editable=1;locked=0;rowspan=2;colspan=1;" vertex="1" parent="JZlGZiO4kJjObdn242vA-32">
          <mxGeometry x="1181" width="60" height="120" as="geometry">
            <mxRectangle width="60" height="60" as="alternateBounds" />
          </mxGeometry>
        </mxCell>
        <mxCell id="JZlGZiO4kJjObdn242vA-45" value="2010" style="shape=partialRectangle;html=1;whiteSpace=wrap;connectable=1;strokeColor=inherit;overflow=hidden;fillColor=none;top=0;left=0;bottom=0;right=0;pointerEvents=1;fontSize=16;movable=1;resizable=1;rotatable=1;deletable=1;editable=1;locked=0;rowspan=2;colspan=1;" vertex="1" parent="JZlGZiO4kJjObdn242vA-32">
          <mxGeometry x="1241" width="129" height="120" as="geometry">
            <mxRectangle width="129" height="60" as="alternateBounds" />
          </mxGeometry>
        </mxCell>
        <mxCell id="JZlGZiO4kJjObdn242vA-46" value="Fodrász utca 1" style="shape=partialRectangle;html=1;whiteSpace=wrap;connectable=1;strokeColor=inherit;overflow=hidden;fillColor=none;top=0;left=0;bottom=0;right=0;pointerEvents=1;fontSize=16;movable=1;resizable=1;rotatable=1;deletable=1;editable=1;locked=0;rowspan=2;colspan=1;" vertex="1" parent="JZlGZiO4kJjObdn242vA-32">
          <mxGeometry x="1370" width="200" height="120" as="geometry">
            <mxRectangle width="200" height="60" as="alternateBounds" />
          </mxGeometry>
        </mxCell>
        <mxCell id="JZlGZiO4kJjObdn242vA-47" style="shape=tableRow;horizontal=0;startSize=0;swimlaneHead=0;swimlaneBody=0;strokeColor=inherit;top=0;left=0;bottom=0;right=0;collapsible=0;dropTarget=0;fillColor=none;points=[[0,0.5],[1,0.5]];portConstraint=eastwest;fontSize=16;" vertex="1" parent="JZlGZiO4kJjObdn242vA-1">
          <mxGeometry y="230" width="1570" height="60" as="geometry" />
        </mxCell>
        <mxCell id="JZlGZiO4kJjObdn242vA-48" value="Festés" style="shape=partialRectangle;html=1;whiteSpace=wrap;connectable=1;strokeColor=inherit;overflow=hidden;fillColor=none;top=0;left=0;bottom=0;right=0;pointerEvents=1;fontSize=16;movable=1;resizable=1;rotatable=1;deletable=1;editable=1;locked=0;" vertex="1" parent="JZlGZiO4kJjObdn242vA-47">
          <mxGeometry width="70" height="60" as="geometry">
            <mxRectangle width="70" height="60" as="alternateBounds" />
          </mxGeometry>
        </mxCell>
        <mxCell id="JZlGZiO4kJjObdn242vA-49" value="8000" style="shape=partialRectangle;html=1;whiteSpace=wrap;connectable=1;strokeColor=inherit;overflow=hidden;fillColor=none;top=0;left=0;bottom=0;right=0;pointerEvents=1;fontSize=16;movable=1;resizable=1;rotatable=1;deletable=1;editable=1;locked=0;" vertex="1" parent="JZlGZiO4kJjObdn242vA-47">
          <mxGeometry x="70" width="50" height="60" as="geometry">
            <mxRectangle width="50" height="60" as="alternateBounds" />
          </mxGeometry>
        </mxCell>
        <mxCell id="JZlGZiO4kJjObdn242vA-50" value="80" style="shape=partialRectangle;html=1;whiteSpace=wrap;connectable=1;strokeColor=inherit;overflow=hidden;fillColor=none;top=0;left=0;bottom=0;right=0;pointerEvents=1;fontSize=16;movable=1;resizable=1;rotatable=1;deletable=1;editable=1;locked=0;" vertex="1" parent="JZlGZiO4kJjObdn242vA-47">
          <mxGeometry x="120" width="60" height="60" as="geometry">
            <mxRectangle width="60" height="60" as="alternateBounds" />
          </mxGeometry>
        </mxCell>
        <mxCell id="JZlGZiO4kJjObdn242vA-51" value="06207895564" style="shape=partialRectangle;html=1;whiteSpace=wrap;connectable=1;strokeColor=inherit;overflow=hidden;fillColor=none;top=0;left=0;bottom=0;right=0;pointerEvents=1;fontSize=16;movable=1;resizable=1;rotatable=1;deletable=1;editable=1;locked=0;" vertex="1" parent="JZlGZiO4kJjObdn242vA-47">
          <mxGeometry x="180" width="130" height="60" as="geometry">
            <mxRectangle width="130" height="60" as="alternateBounds" />
          </mxGeometry>
        </mxCell>
        <mxCell id="JZlGZiO4kJjObdn242vA-52" value="Lompos Vajk" style="shape=partialRectangle;html=1;whiteSpace=wrap;connectable=1;strokeColor=inherit;overflow=hidden;fillColor=none;top=0;left=0;bottom=0;right=0;pointerEvents=1;fontSize=16;movable=1;resizable=1;rotatable=1;deletable=1;editable=1;locked=0;" vertex="1" parent="JZlGZiO4kJjObdn242vA-47">
          <mxGeometry x="310" width="99" height="60" as="geometry">
            <mxRectangle width="99" height="60" as="alternateBounds" />
          </mxGeometry>
        </mxCell>
        <mxCell id="JZlGZiO4kJjObdn242vA-53" value="vajk22@freemail.hu" style="shape=partialRectangle;html=1;whiteSpace=wrap;connectable=1;strokeColor=inherit;overflow=hidden;fillColor=none;top=0;left=0;bottom=0;right=0;pointerEvents=1;fontSize=16;movable=1;resizable=1;rotatable=1;deletable=1;editable=1;locked=0;" vertex="1" parent="JZlGZiO4kJjObdn242vA-47">
          <mxGeometry x="409" width="182" height="60" as="geometry">
            <mxRectangle width="182" height="60" as="alternateBounds" />
          </mxGeometry>
        </mxCell>
        <mxCell id="JZlGZiO4kJjObdn242vA-54" value="" style="shape=partialRectangle;html=1;whiteSpace=wrap;connectable=1;strokeColor=inherit;overflow=hidden;fillColor=none;top=0;left=0;bottom=0;right=0;pointerEvents=1;fontSize=16;movable=1;resizable=1;rotatable=1;deletable=1;editable=1;locked=0;" vertex="1" visible="0" parent="JZlGZiO4kJjObdn242vA-47">
          <mxGeometry x="591" width="128" height="60" as="geometry">
            <mxRectangle width="128" height="60" as="alternateBounds" />
          </mxGeometry>
        </mxCell>
        <mxCell id="JZlGZiO4kJjObdn242vA-55" value="" style="shape=partialRectangle;html=1;whiteSpace=wrap;connectable=1;strokeColor=inherit;overflow=hidden;fillColor=none;top=0;left=0;bottom=0;right=0;pointerEvents=1;fontSize=16;movable=1;resizable=1;rotatable=1;deletable=1;editable=1;locked=0;" vertex="1" visible="0" parent="JZlGZiO4kJjObdn242vA-47">
          <mxGeometry x="719" width="91" height="60" as="geometry">
            <mxRectangle width="91" height="60" as="alternateBounds" />
          </mxGeometry>
        </mxCell>
        <mxCell id="JZlGZiO4kJjObdn242vA-56" value="" style="shape=partialRectangle;html=1;whiteSpace=wrap;connectable=1;strokeColor=inherit;overflow=hidden;fillColor=none;top=0;left=0;bottom=0;right=0;pointerEvents=1;fontSize=16;movable=1;resizable=1;rotatable=1;deletable=1;editable=1;locked=0;" vertex="1" visible="0" parent="JZlGZiO4kJjObdn242vA-47">
          <mxGeometry x="810" width="200" height="60" as="geometry">
            <mxRectangle width="200" height="60" as="alternateBounds" />
          </mxGeometry>
        </mxCell>
        <mxCell id="JZlGZiO4kJjObdn242vA-57" value="" style="shape=partialRectangle;html=1;whiteSpace=wrap;connectable=1;strokeColor=inherit;overflow=hidden;fillColor=none;top=0;left=0;bottom=0;right=0;pointerEvents=1;fontSize=16;movable=1;resizable=1;rotatable=1;deletable=1;editable=1;locked=0;" vertex="1" visible="0" parent="JZlGZiO4kJjObdn242vA-47">
          <mxGeometry x="1010" width="49" height="60" as="geometry">
            <mxRectangle width="49" height="60" as="alternateBounds" />
          </mxGeometry>
        </mxCell>
        <mxCell id="JZlGZiO4kJjObdn242vA-58" value="" style="shape=partialRectangle;html=1;whiteSpace=wrap;connectable=1;strokeColor=inherit;overflow=hidden;fillColor=none;top=0;left=0;bottom=0;right=0;pointerEvents=1;fontSize=16;movable=1;resizable=1;rotatable=1;deletable=1;editable=1;locked=0;" vertex="1" visible="0" parent="JZlGZiO4kJjObdn242vA-47">
          <mxGeometry x="1059" width="122" height="60" as="geometry">
            <mxRectangle width="122" height="60" as="alternateBounds" />
          </mxGeometry>
        </mxCell>
        <mxCell id="JZlGZiO4kJjObdn242vA-59" value="" style="shape=partialRectangle;html=1;whiteSpace=wrap;connectable=1;strokeColor=inherit;overflow=hidden;fillColor=none;top=0;left=0;bottom=0;right=0;pointerEvents=1;fontSize=16;movable=1;resizable=1;rotatable=1;deletable=1;editable=1;locked=0;" vertex="1" visible="0" parent="JZlGZiO4kJjObdn242vA-47">
          <mxGeometry x="1181" width="60" height="60" as="geometry">
            <mxRectangle width="60" height="60" as="alternateBounds" />
          </mxGeometry>
        </mxCell>
        <mxCell id="JZlGZiO4kJjObdn242vA-60" value="" style="shape=partialRectangle;html=1;whiteSpace=wrap;connectable=1;strokeColor=inherit;overflow=hidden;fillColor=none;top=0;left=0;bottom=0;right=0;pointerEvents=1;fontSize=16;movable=1;resizable=1;rotatable=1;deletable=1;editable=1;locked=0;" vertex="1" visible="0" parent="JZlGZiO4kJjObdn242vA-47">
          <mxGeometry x="1241" width="129" height="60" as="geometry">
            <mxRectangle width="129" height="60" as="alternateBounds" />
          </mxGeometry>
        </mxCell>
        <mxCell id="JZlGZiO4kJjObdn242vA-61" value="" style="shape=partialRectangle;html=1;whiteSpace=wrap;connectable=1;strokeColor=inherit;overflow=hidden;fillColor=none;top=0;left=0;bottom=0;right=0;pointerEvents=1;fontSize=16;movable=1;resizable=1;rotatable=1;deletable=1;editable=1;locked=0;" vertex="1" visible="0" parent="JZlGZiO4kJjObdn242vA-47">
          <mxGeometry x="1370" width="200" height="60" as="geometry">
            <mxRectangle width="200" height="60" as="alternateBounds" />
          </mxGeometry>
        </mxCell>
        <mxCell id="JZlGZiO4kJjObdn242vA-62" style="shape=tableRow;horizontal=0;startSize=0;swimlaneHead=0;swimlaneBody=0;strokeColor=inherit;top=0;left=0;bottom=0;right=0;collapsible=0;dropTarget=0;fillColor=none;points=[[0,0.5],[1,0.5]];portConstraint=eastwest;fontSize=16;" vertex="1" parent="JZlGZiO4kJjObdn242vA-1">
          <mxGeometry y="290" width="1570" height="60" as="geometry" />
        </mxCell>
        <mxCell id="JZlGZiO4kJjObdn242vA-63" value="Szakál" style="shape=partialRectangle;html=1;whiteSpace=wrap;connectable=1;strokeColor=inherit;overflow=hidden;fillColor=none;top=0;left=0;bottom=0;right=0;pointerEvents=1;fontSize=16;movable=1;resizable=1;rotatable=1;deletable=1;editable=1;locked=0;" vertex="1" parent="JZlGZiO4kJjObdn242vA-62">
          <mxGeometry width="70" height="60" as="geometry">
            <mxRectangle width="70" height="60" as="alternateBounds" />
          </mxGeometry>
        </mxCell>
        <mxCell id="JZlGZiO4kJjObdn242vA-64" value="2500" style="shape=partialRectangle;html=1;whiteSpace=wrap;connectable=1;strokeColor=inherit;overflow=hidden;fillColor=none;top=0;left=0;bottom=0;right=0;pointerEvents=1;fontSize=16;movable=1;resizable=1;rotatable=1;deletable=1;editable=1;locked=0;" vertex="1" parent="JZlGZiO4kJjObdn242vA-62">
          <mxGeometry x="70" width="50" height="60" as="geometry">
            <mxRectangle width="50" height="60" as="alternateBounds" />
          </mxGeometry>
        </mxCell>
        <mxCell id="JZlGZiO4kJjObdn242vA-65" value="10" style="shape=partialRectangle;html=1;whiteSpace=wrap;connectable=1;strokeColor=inherit;overflow=hidden;fillColor=none;top=0;left=0;bottom=0;right=0;pointerEvents=1;fontSize=16;movable=1;resizable=1;rotatable=1;deletable=1;editable=1;locked=0;" vertex="1" parent="JZlGZiO4kJjObdn242vA-62">
          <mxGeometry x="120" width="60" height="60" as="geometry">
            <mxRectangle width="60" height="60" as="alternateBounds" />
          </mxGeometry>
        </mxCell>
        <mxCell id="JZlGZiO4kJjObdn242vA-66" value="+36705482135" style="shape=partialRectangle;html=1;whiteSpace=wrap;connectable=1;strokeColor=inherit;overflow=hidden;fillColor=none;top=0;left=0;bottom=0;right=0;pointerEvents=1;fontSize=16;movable=1;resizable=1;rotatable=1;deletable=1;editable=1;locked=0;" vertex="1" parent="JZlGZiO4kJjObdn242vA-62">
          <mxGeometry x="180" width="130" height="60" as="geometry">
            <mxRectangle width="130" height="60" as="alternateBounds" />
          </mxGeometry>
        </mxCell>
        <mxCell id="JZlGZiO4kJjObdn242vA-67" value="Ír Tó Tamás" style="shape=partialRectangle;html=1;whiteSpace=wrap;connectable=1;strokeColor=inherit;overflow=hidden;fillColor=none;top=0;left=0;bottom=0;right=0;pointerEvents=1;fontSize=16;movable=1;resizable=1;rotatable=1;deletable=1;editable=1;locked=0;" vertex="1" parent="JZlGZiO4kJjObdn242vA-62">
          <mxGeometry x="310" width="99" height="60" as="geometry">
            <mxRectangle width="99" height="60" as="alternateBounds" />
          </mxGeometry>
        </mxCell>
        <mxCell id="JZlGZiO4kJjObdn242vA-68" value="ir_to_t@gmail.com" style="shape=partialRectangle;html=1;whiteSpace=wrap;connectable=1;strokeColor=inherit;overflow=hidden;fillColor=none;top=0;left=0;bottom=0;right=0;pointerEvents=1;fontSize=16;movable=1;resizable=1;rotatable=1;deletable=1;editable=1;locked=0;" vertex="1" parent="JZlGZiO4kJjObdn242vA-62">
          <mxGeometry x="409" width="182" height="60" as="geometry">
            <mxRectangle width="182" height="60" as="alternateBounds" />
          </mxGeometry>
        </mxCell>
        <mxCell id="JZlGZiO4kJjObdn242vA-69" value="+36704712136" style="shape=partialRectangle;html=1;whiteSpace=wrap;connectable=1;strokeColor=inherit;overflow=hidden;fillColor=none;top=0;left=0;bottom=0;right=0;pointerEvents=1;fontSize=16;movable=1;resizable=1;rotatable=1;deletable=1;editable=1;locked=0;" vertex="1" parent="JZlGZiO4kJjObdn242vA-62">
          <mxGeometry x="591" width="128" height="60" as="geometry">
            <mxRectangle width="128" height="60" as="alternateBounds" />
          </mxGeometry>
        </mxCell>
        <mxCell id="JZlGZiO4kJjObdn242vA-70" value="Cut Fresh" style="shape=partialRectangle;html=1;whiteSpace=wrap;connectable=1;strokeColor=inherit;overflow=hidden;fillColor=none;top=0;left=0;bottom=0;right=0;pointerEvents=1;fontSize=16;movable=1;resizable=1;rotatable=1;deletable=1;editable=1;locked=0;" vertex="1" parent="JZlGZiO4kJjObdn242vA-62">
          <mxGeometry x="719" width="91" height="60" as="geometry">
            <mxRectangle width="91" height="60" as="alternateBounds" />
          </mxGeometry>
        </mxCell>
        <mxCell id="JZlGZiO4kJjObdn242vA-71" value="cut_frsh@example.com" style="shape=partialRectangle;html=1;whiteSpace=wrap;connectable=1;strokeColor=inherit;overflow=hidden;fillColor=none;top=0;left=0;bottom=0;right=0;pointerEvents=1;fontSize=16;movable=1;resizable=1;rotatable=1;deletable=1;editable=1;locked=0;" vertex="1" parent="JZlGZiO4kJjObdn242vA-62">
          <mxGeometry x="810" width="200" height="60" as="geometry">
            <mxRectangle width="200" height="60" as="alternateBounds" />
          </mxGeometry>
        </mxCell>
        <mxCell id="JZlGZiO4kJjObdn242vA-72" value="3" style="shape=partialRectangle;html=1;whiteSpace=wrap;connectable=1;strokeColor=inherit;overflow=hidden;fillColor=none;top=0;left=0;bottom=0;right=0;pointerEvents=1;fontSize=16;movable=1;resizable=1;rotatable=1;deletable=1;editable=1;locked=0;" vertex="1" parent="JZlGZiO4kJjObdn242vA-62">
          <mxGeometry x="1010" width="49" height="60" as="geometry">
            <mxRectangle width="49" height="60" as="alternateBounds" />
          </mxGeometry>
        </mxCell>
        <mxCell id="JZlGZiO4kJjObdn242vA-73" value="Tompa Agyú" style="shape=partialRectangle;html=1;whiteSpace=wrap;connectable=1;strokeColor=inherit;overflow=hidden;fillColor=none;top=0;left=0;bottom=0;right=0;pointerEvents=1;fontSize=16;movable=1;resizable=1;rotatable=1;deletable=1;editable=1;locked=0;" vertex="1" parent="JZlGZiO4kJjObdn242vA-62">
          <mxGeometry x="1059" width="122" height="60" as="geometry">
            <mxRectangle width="122" height="60" as="alternateBounds" />
          </mxGeometry>
        </mxCell>
        <mxCell id="JZlGZiO4kJjObdn242vA-74" value="5" style="shape=partialRectangle;html=1;whiteSpace=wrap;connectable=1;strokeColor=inherit;overflow=hidden;fillColor=none;top=0;left=0;bottom=0;right=0;pointerEvents=1;fontSize=16;movable=1;resizable=1;rotatable=1;deletable=1;editable=1;locked=0;" vertex="1" parent="JZlGZiO4kJjObdn242vA-62">
          <mxGeometry x="1181" width="60" height="60" as="geometry">
            <mxRectangle width="60" height="60" as="alternateBounds" />
          </mxGeometry>
        </mxCell>
        <mxCell id="JZlGZiO4kJjObdn242vA-75" value="6776" style="shape=partialRectangle;html=1;whiteSpace=wrap;connectable=1;strokeColor=inherit;overflow=hidden;fillColor=none;top=0;left=0;bottom=0;right=0;pointerEvents=1;fontSize=16;movable=1;resizable=1;rotatable=1;deletable=1;editable=1;locked=0;" vertex="1" parent="JZlGZiO4kJjObdn242vA-62">
          <mxGeometry x="1241" width="129" height="60" as="geometry">
            <mxRectangle width="129" height="60" as="alternateBounds" />
          </mxGeometry>
        </mxCell>
        <mxCell id="JZlGZiO4kJjObdn242vA-76" value="Nyíró gép út 65" style="shape=partialRectangle;html=1;whiteSpace=wrap;connectable=1;strokeColor=inherit;overflow=hidden;fillColor=none;top=0;left=0;bottom=0;right=0;pointerEvents=1;fontSize=16;movable=1;resizable=1;rotatable=1;deletable=1;editable=1;locked=0;" vertex="1" parent="JZlGZiO4kJjObdn242vA-62">
          <mxGeometry x="1370" width="200" height="60" as="geometry">
            <mxRectangle width="200" height="60" as="alternateBounds" />
          </mxGeometry>
        </mxCell>
      </root>
    </mxGraphModel>
  </diagram>
</mxfile>
